<?xml version="1.0" encoding="UTF-8" standalone="no"?>
<svg
   xmlns:dc="http://purl.org/dc/elements/1.1/"
   xmlns:cc="http://creativecommons.org/ns#"
   xmlns:rdf="http://www.w3.org/1999/02/22-rdf-syntax-ns#"
   xmlns:svg="http://www.w3.org/2000/svg"
   xmlns="http://www.w3.org/2000/svg"
   xmlns:sodipodi="http://sodipodi.sourceforge.net/DTD/sodipodi-0.dtd"
   xmlns:inkscape="http://www.inkscape.org/namespaces/inkscape"
   viewBox="0 0 965.21233 575.16888"
   height="575.16888"
   width="965.21234"
   version="1.1"
   id="svg3336"
   inkscape:version="0.91 r13725"
   sodipodi:docname="SenS-Logo-Editing.svg"
   style="enable-background:new">
  <sodipodi:namedview
     pagecolor="#ffffff"
     bordercolor="#666666"
     borderopacity="1"
     objecttolerance="10"
     gridtolerance="10"
     guidetolerance="10"
     inkscape:pageopacity="0"
     inkscape:pageshadow="2"
     inkscape:window-width="1920"
     inkscape:window-height="1053"
     id="namedview10"
     showgrid="false"
     inkscape:snap-grids="true"
     inkscape:snap-page="false"
     fit-margin-top="0"
     fit-margin-left="0"
     fit-margin-right="0"
     fit-margin-bottom="0"
     inkscape:zoom="0.76508705"
     inkscape:cx="747.42061"
     inkscape:cy="337.31694"
     inkscape:window-x="0"
     inkscape:window-y="27"
     inkscape:window-maximized="1"
     inkscape:current-layer="svg3336" />
  <metadata
     id="metadata3342">
    <rdf:RDF>
      <cc:Work
         rdf:about="">
        <dc:format>image/svg+xml</dc:format>
        <dc:type
           rdf:resource="http://purl.org/dc/dcmitype/StillImage" />
        <dc:title></dc:title>
      </cc:Work>
    </rdf:RDF>
  </metadata>
  <defs
     id="defs3340" />
  <g
     style="display:inline"
     id="layer2"
     transform="matrix(1.4508534,0,0,1.4508534,-0.77603154,-0.67111116)">
    <path
       id="path3361"
       d="m 30.950869,115.49636 0,-83.165401 75.082831,0 0,88.057481 29.56519,0 0,-91.673371 c 0,-15.314345 -10.63496,-27.012803 -24.46041,-27.012803 -13.825451,0 -82.527301,0 -82.527301,0 -17.01594,0 -28.07629964,9.784165 -28.07629964,30.628693 0,20.84452 0,78.486011 0,78.486011 0,15.95245 8.50796984,27.6509 14.67624964,36.15887 6.16827,8.50797 89.333671,124.00366 89.333671,124.00366 l 0,95.28925 -73.806631,0 0,-96.77815 -29.5651896,0 0,99.11784 c 0,16.59054 11.2730596,27.4382 19.3556296,27.8636 8.08257,0.4254 95.714651,0.4254 95.714651,0.4254 13.18735,-0.2127 19.78103,-16.59054 19.78103,-27.2255 0,-10.63496 0,-97.62895 0,-97.62895 0,-13.82545 -8.08257,-22.33342 -15.95244,-32.54298 C 112.20198,229.29045 30.950869,115.49636 30.950869,115.49636 Z"
       style="opacity:1;fill:#000000;fill-opacity:1;fill-rule:evenodd;stroke:none;stroke-width:1px;stroke-linecap:butt;stroke-linejoin:miter;stroke-opacity:1"
       inkscape:connector-curvature="0" />
    <path
       id="path3361-3"
       d="m 560.73358,114.25666 0,-83.165391 75.08283,0 0,88.057471 29.56519,0 0,-91.673361 c 0,-15.314356 -10.63496,-27.01281596 -24.46041,-27.01281596 -13.82545,0 -82.5273,0 -82.5273,0 -17.01594,0 -28.0763,9.78416996 -28.0763,30.62870596 0,20.84451 0,78.486001 0,78.486001 0,15.95245 8.50797,27.6509 14.67625,36.15887 6.16827,8.50797 89.33367,124.00366 89.33367,124.00366 l 0,95.28925 -73.80663,0 0,-96.77815 -29.56519,0 0,99.11784 c 0,16.59054 11.27306,27.4382 19.35563,27.8636 8.08257,0.4254 95.71465,0.4254 95.71465,0.4254 13.18735,-0.2127 19.78103,-16.59054 19.78103,-27.2255 0,-10.63496 0,-97.62895 0,-97.62895 0,-13.82545 -8.08257,-22.33342 -15.95244,-32.54298 -7.86987,-10.20956 -89.12098,-124.00365 -89.12098,-124.00365 z"
       style="opacity:1;fill:#000000;fill-opacity:1;fill-rule:evenodd;stroke:none;stroke-width:1px;stroke-linecap:butt;stroke-linejoin:miter;stroke-opacity:1"
       inkscape:connector-curvature="0" />
    <path
       id="path3378"
       d="m 212.82381,150.71462 c -14.7393,0 -24.96679,11.43238 -24.96679,28.8789 l 0,188 c 0,16.84492 8.12206,28.72656 22.25976,28.72656 l 77.75782,0 c 7.97126,0 18.49804,-6.46595 18.49804,-18.49804 l 0,-53.54297 -27.07226,0 0,45.41992 -62.56641,0 0,-90.24023 78.58398,0.37695 9.70118,-9.70117 0,-95.20508 c 0,-17.29613 -7.06912,-24.21484 -24.21485,-24.21484 l -67.98047,0 z m 3.81446,27.10351 61.89453,0 0,75.08203 -61.89453,0 0,-75.08203 z"
       style="display:inline;opacity:1;fill:#000000;fill-opacity:1;fill-rule:evenodd;stroke:none;stroke-width:1px;stroke-linecap:butt;stroke-linejoin:miter;stroke-opacity:1"
       inkscape:connector-curvature="0" />
    <path
       id="path5623"
       d="m 358.11115,150.11394 0,246.05615 28.27541,0 0,-211.4639 65.57486,-5.71524 0,216.57754 29.17781,0 0,-224.0976 c 0,-14.4385 -8.72326,-23.46256 -26.47059,-21.95855 -17.74733,1.50401 -58.05481,6.91845 -67.98128,9.62566 0,-7.52005 0,-9.32486 0,-9.32486 z"
       style="display:inline;opacity:1;fill:#000000;fill-opacity:1;fill-rule:evenodd;stroke:none;stroke-width:1px;stroke-linecap:butt;stroke-linejoin:miter;stroke-opacity:1"
       inkscape:connector-curvature="0" />
  </g>
</svg>
