<svg xmlns="http://www.w3.org/2000/svg" width="965.2" height="575.2" viewBox="0 0 965.2 575.2">
  <path d="M44 167V46h109v128h43V41c0-22.2-15.5-39.2-35.5-39.2H40.7C16 1.8 0 16 0 46.2v114c0 23 12.3 40 21.3 52.4 9 12.3 129.6 180 129.6 180v138H43.4V390.4H.5V534c0 24.2 16.8 40 28.5 40.6 11.7.6 139 .6 139 .6 19-.3 28.6-24 28.6-39.5V394c0-20-11.8-32.4-23.2-47.2C162 332 44 166.8 44 166.8zm768.8-2V44.5h109v127.8h42.8v-133C964.6 17 949.2 0 929 0H809.5c-24.7 0-40.8 14.2-40.8 44.4v114c0 23 12.4 40 21.3 52.4 9 12.3 129.5 180 129.5 180v138h-107V388.6h-43v143.8c0 24 16.4 39.8 28 40.5 12 .3 139 .3 139 .3 19-.3 28.7-24 28.7-39.5V392c0-20-11.7-32.4-23-47.2-11.6-14.8-129.4-180-129.4-180zM308 218c-21.4 0-36.2 16.6-36.2 42v272.7c0 24.4 11.8 41.6 32.3 41.6h113c11.8 0 27-9.3 27-26.8v-77.7h-39.3v66H314v-131l114 .5 14-14V253c0-25-10.3-35-35-35h-99zm5.5 39.3h89.8v109h-89.8v-109zM518.8 217v357h41V267.4L655 259v314.2h42.3v-325c0-21-12.7-34-38.4-32-26 2.2-84.6 10-99 14v-13.5z" fill-rule="evenodd"/>
</svg>
